<svg width="16px" height="16px" viewBox="0 0 18 18" version="1.1" xmlns="http://www.w3.org/2000/svg">
    <g id="Dashboard" stroke="none" stroke-width="1" fill="none" fill-rule="evenodd" opacity="0.894042969">
        <g id="Dashboard---NEW---Wallet-Rename-Typing" transform="translate(-349.000000, -119.000000)">
            <g id="Wallet-popover" transform="translate(80.000000, 88.000000)">
                <g id="Icon/ExternalLInk" transform="translate(24.000000, 24.000000)" d="0 0 0 0 0.509804 0 0 0 0 0.572549 0 0 0 0 0.678431 0 0 0 1.000000 0">
                    <g transform="translate(245.000000, 7.000000)" id="icon">
                        <polygon id="Path" points="0 0 18 0 18 18 0 18"></polygon>
                        <path d="M14.25,14.25 L3.75,14.25 L3.75,3.75 L9,3.75 L9,2.25 L3.75,2.25 C2.9175,2.25 2.25,2.925 2.25,3.75 L2.25,14.25 C2.25,15.075 2.9175,15.75 3.75,15.75 L14.25,15.75 C15.075,15.75 15.75,15.075 15.75,14.25 L15.75,9 L14.25,9 L14.25,14.25 Z M10.5,2.25 L10.5,3.75 L13.1925,3.75 L5.82,11.1225 L6.8775,12.18 L14.25,4.8075 L14.25,7.5 L15.75,7.5 L15.75,2.25 L10.5,2.25 Z" id="Shape" fill="#8292AD" fill-rule="nonzero"></path>
                    </g>
                </g>
            </g>
        </g>
    </g>
</svg>